<svg width="250" height="250" viewBox="0 0 250 250" fill="none" xmlns="http://www.w3.org/2000/svg">
<rect width="250" height="250" rx="20" fill="#DEE9E2"/>
<g opacity="0.3" clip-path="url(#clip0_3926_3154)">
<path d="M122.06 19.9773C122.297 19.9615 122.533 19.9498 122.769 19.9423C123.63 19.9161 124.491 19.9006 125.353 19.8957C126.214 19.8908 127.075 19.8966 127.937 19.913C128.798 19.9293 129.659 19.9563 130.519 19.994C131.379 20.0316 132.239 20.0798 133.099 20.1387C133.958 20.1975 134.816 20.2669 135.674 20.347C136.532 20.427 137.388 20.5176 138.243 20.6188C139.099 20.72 139.953 20.8317 140.805 20.9539C141.658 21.0762 142.509 21.209 143.358 21.3522C144.207 21.4955 145.055 21.6492 145.9 21.8134C146.745 21.9775 147.589 22.1521 148.43 22.3371C149.271 22.5221 150.11 22.7174 150.946 22.9231C151.782 23.1288 152.616 23.3448 153.447 23.5711C154.278 23.7973 155.106 24.0338 155.931 24.2806C156.756 24.5273 157.578 24.7841 158.397 25.0511C159.215 25.3181 160.031 25.5952 160.843 25.8823C161.654 26.1694 162.462 26.4665 163.267 26.7736C164.071 27.0806 164.872 27.3976 165.669 27.7244C166.465 28.0512 167.258 28.3878 168.046 28.7342C168.834 29.0806 169.618 29.4367 170.398 29.8024C171.177 30.1682 171.952 30.5435 172.722 30.9284C173.492 31.3132 174.258 31.7075 175.018 32.1113C175.779 32.515 176.534 32.9281 177.284 33.3505C178.034 33.7729 178.779 34.2045 179.518 34.6453C180.258 35.0861 180.992 35.5359 181.72 35.9948C182.448 36.4537 183.171 36.9215 183.887 37.3983C184.604 37.875 185.315 38.3605 186.02 38.8548C186.724 39.3491 187.423 39.852 188.115 40.3635C188.807 40.875 189.493 41.395 190.172 41.9234C190.852 42.4519 191.524 42.9886 192.191 43.5337C192.857 44.0787 193.516 44.6319 194.168 45.1932C194.821 45.7546 195.466 46.3238 196.104 46.9011C196.742 47.4783 197.373 48.0634 197.997 48.6562C198.606 49.2348 199.209 49.8208 199.804 50.414C200.399 51.0072 200.986 51.6075 201.567 52.215C202.147 52.8224 202.72 53.4368 203.286 54.0581C203.852 54.6795 204.41 55.3075 204.96 55.9422C205.51 56.5772 206.052 57.2187 206.587 57.8666C207.122 58.5145 207.649 59.1688 208.167 59.8296C208.686 60.4904 209.197 61.1572 209.7 61.8301C210.202 62.5033 210.697 63.1824 211.183 63.8674C211.669 64.5525 212.147 65.2433 212.616 65.9397C213.085 66.6364 213.546 67.3387 213.998 68.0466C214.451 68.7543 214.894 69.4674 215.329 70.1859C215.764 70.9045 216.19 71.6282 216.607 72.3569C217.025 73.0857 217.433 73.8194 217.833 74.5581C218.232 75.2969 218.623 76.0403 219.004 76.7885C219.385 77.5367 219.758 78.2893 220.121 79.0462C220.484 79.8034 220.838 80.5649 221.182 81.3309C221.527 82.0965 221.862 82.8663 222.188 83.6403C222.514 84.414 222.83 85.1915 223.137 85.973C223.444 86.7547 223.742 87.5399 224.03 88.3287C224.318 89.1172 224.596 89.9092 224.865 90.7048C225.134 91.5003 225.393 92.2989 225.642 93.1005C225.891 93.9021 226.131 94.7068 226.36 95.5145C226.59 96.3219 226.81 97.132 227.02 97.9448C227.23 98.7578 227.43 99.5732 227.62 100.391C227.811 101.208 227.991 102.028 228.161 102.85C228.331 103.672 228.492 104.496 228.642 105.322C228.792 106.148 228.933 106.976 229.063 107.805C229.193 108.635 229.313 109.465 229.423 110.298C229.533 111.13 229.633 111.963 229.722 112.798C229.812 113.633 229.892 114.468 229.961 115.305C230.03 116.141 230.09 116.979 230.138 117.816C230.188 118.654 230.227 119.493 230.255 120.332C230.358 123.141 230.36 125.95 230.263 128.759C230.165 131.569 229.967 134.371 229.669 137.166C229.591 137.866 229.506 138.566 229.414 139.264C229.322 139.963 229.223 140.661 229.116 141.357C229.01 142.054 228.896 142.75 228.776 143.444C228.655 144.139 228.528 144.832 228.393 145.524C228.258 146.215 228.116 146.905 227.967 147.594C227.819 148.283 227.663 148.971 227.5 149.656C227.337 150.342 227.167 151.026 226.991 151.708C226.814 152.391 226.63 153.071 226.44 153.75C226.249 154.428 226.051 155.105 225.847 155.779C225.643 156.454 225.431 157.126 225.213 157.797C224.995 158.467 224.77 159.135 224.538 159.8C224.306 160.466 224.068 161.129 223.823 161.79C223.577 162.451 223.325 163.109 223.067 163.765C222.808 164.421 222.542 165.074 222.27 165.724C221.998 166.374 221.72 167.022 221.434 167.667C221.149 168.311 220.857 168.953 220.559 169.592C220.261 170.23 219.956 170.866 219.645 171.499C219.333 172.131 219.015 172.76 218.691 173.386C218.367 174.013 218.037 174.635 217.7 175.255C217.363 175.874 217.02 176.49 216.67 177.102C216.321 177.714 215.966 178.323 215.604 178.928C215.242 179.534 214.874 180.135 214.5 180.733C214.126 181.331 213.746 181.924 213.359 182.514C212.973 183.104 212.581 183.69 212.183 184.273C211.785 184.854 211.381 185.432 210.971 186.006C210.561 186.58 210.145 187.149 209.724 187.715C209.302 188.28 208.875 188.841 208.442 189.398C208.009 189.955 207.57 190.507 207.126 191.055C206.682 191.602 206.232 192.145 205.777 192.684C205.321 193.223 204.861 193.757 204.394 194.286C203.928 194.815 203.457 195.34 202.98 195.859C202.503 196.379 202.021 196.894 201.533 197.404C200.944 198.029 200.347 198.648 199.742 199.259C199.137 199.87 198.525 200.473 197.905 201.069C197.286 201.665 196.659 202.253 196.025 202.833C195.391 203.414 194.749 203.986 194.101 204.551C193.453 205.116 192.798 205.672 192.135 206.221C191.473 206.77 190.805 207.31 190.129 207.842C189.454 208.374 188.772 208.898 188.084 209.413C187.395 209.928 186.701 210.435 186 210.933C185.299 211.431 184.592 211.921 183.879 212.402C183.166 212.883 182.447 213.355 181.723 213.818C180.998 214.281 180.268 214.735 179.532 215.18C178.796 215.625 178.055 216.061 177.308 216.488C176.562 216.915 175.81 217.333 175.053 217.741C174.296 218.149 173.534 218.548 172.767 218.938C172 219.328 171.229 219.708 170.453 220.078C169.676 220.449 168.896 220.81 168.111 221.162C167.326 221.513 166.536 221.855 165.743 222.187C164.949 222.519 164.152 222.841 163.35 223.153C162.549 223.466 161.743 223.768 160.934 224.06C160.125 224.353 159.313 224.636 158.497 224.908C157.681 225.181 156.861 225.443 156.039 225.696C155.216 225.948 154.391 226.19 153.563 226.422C152.734 226.654 151.903 226.876 151.069 227.088C150.235 227.299 149.399 227.501 148.56 227.692C147.721 227.883 146.88 228.063 146.036 228.234C145.193 228.404 144.347 228.564 143.5 228.713C142.653 228.863 141.804 229.002 140.953 229.131C140.102 229.259 139.25 229.377 138.396 229.485C137.543 229.593 136.688 229.69 135.832 229.776C134.976 229.863 134.119 229.939 133.261 230.004C132.403 230.07 131.544 230.125 130.685 230.169C129.825 230.213 128.966 230.247 128.106 230.27C125.415 230.302 122.687 230.372 120 230.23C119.24 230.195 118.481 230.152 117.722 230.101C116.964 230.049 116.206 229.99 115.448 229.922C114.691 229.854 113.934 229.778 113.179 229.694C112.423 229.609 111.668 229.517 110.914 229.417C110.161 229.316 109.408 229.207 108.657 229.09C107.905 228.973 107.155 228.848 106.407 228.715C105.658 228.582 104.911 228.441 104.165 228.291C103.42 228.142 102.676 227.985 101.934 227.819C101.192 227.654 100.451 227.48 99.7129 227.299C98.9746 227.117 98.2383 226.928 97.5039 226.73C96.7697 226.533 96.0377 226.328 95.308 226.114C94.5782 225.901 93.8508 225.68 93.1259 225.451C92.4008 225.222 91.6783 224.985 90.9585 224.74C90.2387 224.495 89.5216 224.243 88.8071 223.982C88.0929 223.722 87.3815 223.454 86.6729 223.179C85.9645 222.903 85.2592 222.62 84.5569 222.329C83.8544 222.038 83.1552 221.739 82.4595 221.433C81.7636 221.127 81.0711 220.813 80.3822 220.492C79.6931 220.171 79.0076 219.843 78.3257 219.507C77.6438 219.171 76.9658 218.827 76.2915 218.477C75.6169 218.126 74.9464 217.768 74.2798 217.403C73.6131 217.038 72.9504 216.666 72.2919 216.286C71.6334 215.906 70.9792 215.52 70.3292 215.126C69.679 214.733 69.0331 214.332 68.3916 213.924C67.7504 213.516 67.1135 213.102 66.4811 212.68C65.8486 212.259 65.2209 211.83 64.5979 211.395C63.9749 210.96 63.3567 210.518 62.7432 210.07C62.1297 209.621 61.5211 209.166 60.9176 208.705C60.3141 208.243 59.7156 207.775 59.122 207.3C58.5287 206.825 57.9406 206.344 57.3578 205.857C56.7749 205.369 56.1973 204.876 55.6249 204.376C55.0529 203.876 54.4863 203.37 53.9251 202.858C53.2797 202.275 52.6418 201.684 52.0112 201.085C51.3806 200.486 50.7576 199.879 50.1421 199.265C49.5266 198.65 48.9189 198.028 48.3189 197.399C47.7189 196.769 47.1269 196.132 46.5428 195.488C45.9587 194.844 45.3828 194.192 44.8149 193.534C44.247 192.875 43.6875 192.21 43.1362 191.537C42.5849 190.865 42.0421 190.186 41.5078 189.5C40.9734 188.814 40.4477 188.122 39.9306 187.423C39.4135 186.724 38.9053 186.019 38.4057 185.307C37.9062 184.596 37.4157 183.878 36.934 183.154C36.4524 182.43 35.9799 181.701 35.5165 180.965C35.0531 180.23 34.5989 179.489 34.1539 178.742C33.7089 177.995 33.2733 177.243 32.8471 176.485C32.4209 175.728 32.0042 174.965 31.597 174.197C31.1898 173.429 30.7923 172.656 30.4043 171.879C30.0164 171.101 29.6382 170.318 29.2698 169.531C28.9013 168.744 28.5428 167.952 28.1941 167.156C27.8454 166.36 27.5067 165.56 27.1779 164.755C26.8492 163.951 26.5305 163.142 26.2219 162.33C25.9133 161.518 25.6148 160.701 25.3266 159.882C25.0383 159.062 24.7603 158.239 24.4926 157.412C24.2249 156.585 23.9675 155.755 23.7204 154.922C23.4734 154.089 23.2367 153.253 23.0105 152.414C22.7843 151.575 22.5686 150.734 22.3634 149.889C22.1581 149.045 21.9634 148.198 21.7793 147.349C21.5952 146.5 21.4217 145.648 21.2588 144.795C21.0959 143.941 20.9436 143.086 20.802 142.229C20.6604 141.372 20.5296 140.513 20.4094 139.652C20.2892 138.792 20.1798 137.93 20.0811 137.066C19.9824 136.203 19.8945 135.339 19.8173 134.474C19.7402 133.608 19.6738 132.742 19.6182 131.875C19.5627 131.008 19.5179 130.14 19.484 129.272C19.4488 128.412 19.4241 127.551 19.4099 126.69C19.3958 125.829 19.3921 124.968 19.399 124.106C19.4059 123.245 19.4233 122.384 19.4512 121.524C19.4791 120.663 19.5176 119.803 19.5665 118.943C19.6155 118.083 19.6749 117.224 19.7449 116.366C19.8148 115.507 19.8953 114.65 19.9862 113.794C20.0771 112.938 20.1785 112.082 20.2903 111.228C20.4021 110.374 20.5243 109.522 20.657 108.671C20.7896 107.82 20.9326 106.971 21.0861 106.124C21.2395 105.276 21.4032 104.431 21.5773 103.587C21.7514 102.744 21.9357 101.903 22.1304 101.064C22.325 100.225 22.5299 99.3881 22.745 98.5542C22.9601 97.7203 23.1853 96.8891 23.4207 96.0605C23.6561 95.2322 23.9016 94.4066 24.1572 93.5839C24.4128 92.7614 24.6784 91.9422 24.954 91.1262C25.2296 90.3103 25.5151 89.4977 25.8106 88.6886C26.1061 87.8794 26.4114 87.074 26.7266 86.2724C27.0418 85.4708 27.3667 84.6731 27.7013 83.8792C28.036 83.0856 28.3803 82.296 28.7343 81.5104C29.0882 80.7251 29.4517 79.9442 29.8248 79.1679C30.1978 78.3913 30.5803 77.6194 30.9723 76.8523C31.3642 76.0851 31.7654 75.3229 32.176 74.5654C32.5865 73.808 33.0063 73.0557 33.4352 72.3085C33.8642 71.5613 34.3022 70.8194 34.7493 70.0828C35.1964 69.3463 35.6524 68.6152 36.1173 67.8896C36.5823 67.1643 37.056 66.4446 37.5386 65.7306C38.0211 65.0167 38.5123 64.3088 39.0122 63.607C39.512 62.9049 40.0204 62.2092 40.5372 61.5198C41.0541 60.8301 41.5793 60.1469 42.1129 59.4701C42.6464 58.7933 43.1882 58.1232 43.7381 57.4597C44.288 56.796 44.846 56.1393 45.412 55.4894C45.978 54.8393 46.5519 54.1963 47.1336 53.5602C47.6244 53.03 48.1206 52.5049 48.6224 51.9849C49.1241 51.4649 49.6311 50.9502 50.1436 50.4407C50.656 49.9312 51.1736 49.4271 51.6965 48.9284C52.2194 48.4296 52.7475 47.9363 53.2806 47.4485C53.8138 46.9607 54.352 46.4785 54.8951 46.0018C55.4383 45.5251 55.9864 45.0541 56.5393 44.5888C57.0923 44.1235 57.65 43.664 58.2127 43.2102C58.7751 42.7565 59.3423 42.3086 59.9142 41.8665C60.4861 41.4245 61.0625 40.9885 61.6434 40.5584C62.2243 40.1283 62.8096 39.7043 63.3992 39.2864C63.9891 38.8684 64.5832 38.4566 65.1813 38.0509C65.7798 37.6453 66.3822 37.2459 66.9886 36.8527C67.5953 36.4596 68.206 36.0727 68.8207 35.6922C69.4352 35.3117 70.0537 34.9376 70.6762 34.5698C71.2987 34.2021 71.9248 33.8409 72.5546 33.4862C73.1847 33.1314 73.8182 32.7832 74.4553 32.4416C75.0927 32.1 75.7334 31.765 76.3776 31.4367C77.0217 31.1083 77.6692 30.7867 78.3199 30.4717C78.9708 30.1568 79.6248 29.8486 80.2819 29.5472C80.9392 29.2458 81.5995 28.9513 82.2628 28.6636C82.9262 28.3759 83.5925 28.095 84.2617 27.8211C84.9309 27.5472 85.6029 27.2803 86.2777 27.0202C86.9525 26.7603 87.6299 26.5073 88.3098 26.2613C88.9899 26.0153 89.6724 25.7764 90.3572 25.5446C91.0422 25.3128 91.7295 25.0881 92.4191 24.8705C93.1088 24.6529 93.8006 24.4424 94.4946 24.2392C95.1886 24.0359 95.8847 23.8399 96.5829 23.651C97.281 23.4622 97.981 23.2806 98.6828 23.1062C99.3849 22.9319 100.088 22.7648 100.794 22.605C101.499 22.4453 102.206 22.2928 102.915 22.1477C103.623 22.0025 104.333 21.8648 105.045 21.7343C105.756 21.6039 106.469 21.4809 107.183 21.3652C112.151 20.5438 117.042 20.2061 122.06 19.9773ZM86.8758 215.677C89.1092 212.213 89.5037 206.804 88.6513 202.85C87.075 195.537 80.9255 190.839 75.4354 186.376C72.6838 184.14 69.9274 181.908 67.3397 179.481C53.6348 166.627 44.4436 148.523 43.5187 129.642C43.1222 121.551 44.1619 113.531 45.9143 105.643C47.3779 99.0558 49.3811 92.6393 51.3916 86.2039C52.1479 83.7831 52.6135 81.0216 54.0035 78.8674C54.6334 77.8908 55.4153 77.2723 56.5707 77.0497C57.9774 76.7783 59.87 77.183 61.0355 78.0041C62.2287 78.8448 62.888 80.1619 63.1029 81.576C63.6079 84.9046 62.5246 89.495 62.063 92.8601C61.6028 96.1491 61.2385 99.4487 60.9702 102.759C60.9293 103.238 60.8937 103.719 60.8633 104.199C60.8331 104.68 60.8082 105.16 60.7885 105.641C60.7687 106.122 60.7543 106.604 60.745 107.085C60.736 107.566 60.7324 108.047 60.7341 108.529C60.7355 109.01 60.7424 109.492 60.7545 109.973C60.7667 110.454 60.7842 110.935 60.8071 111.416C60.8299 111.897 60.858 112.377 60.8914 112.858C60.9249 113.338 60.9637 113.818 61.0078 114.297C61.0518 114.777 61.101 115.255 61.1555 115.734C61.2103 116.212 61.2702 116.69 61.3354 117.167C61.4006 117.644 61.471 118.12 61.5467 118.596C61.6223 119.071 61.7032 119.545 61.7893 120.019C61.8755 120.493 61.9669 120.965 62.0637 121.437C62.1603 121.909 62.2621 122.379 62.3691 122.849C62.4759 123.318 62.5881 123.786 62.7056 124.253C62.8228 124.72 62.9453 125.186 63.073 125.65C63.2005 126.114 63.3332 126.577 63.4711 127.038C63.609 127.5 63.752 127.959 63.8999 128.417C64.048 128.876 64.201 129.332 64.3589 129.787C64.517 130.242 64.6801 130.695 64.8482 131.146C65.0163 131.597 65.1894 132.047 65.3674 132.494C65.5455 132.942 65.7284 133.387 65.9162 133.83C66.104 134.274 66.2968 134.715 66.4946 135.154C66.6921 135.593 66.8945 136.03 67.1017 136.465C67.309 136.9 67.521 137.332 67.7377 137.762C67.9545 138.192 68.1761 138.62 68.4026 139.045C68.6288 139.47 68.8597 139.893 69.0951 140.313C69.3306 140.733 69.5708 141.15 69.8158 141.565C70.0605 141.98 70.3098 142.392 70.5638 142.801C70.8178 143.211 71.0761 143.617 71.3388 144.021C71.6018 144.424 71.8691 144.825 72.1409 145.223C72.4126 145.62 72.6887 146.015 72.9691 146.407C75.419 149.836 78.3184 153.331 81.7115 155.872C82.4403 156.428 83.2153 156.91 84.0366 157.318C83.2553 155.414 81.8232 153.899 80.561 152.301C79.7631 151.277 79.0011 150.226 78.275 149.15C76.2367 146.137 68.1632 131.944 69.3779 129.239C69.6578 128.616 70.2274 128.256 70.8535 128.037C73.465 127.12 76.5684 127.592 78.9967 128.801C82.7715 130.681 85.606 134.359 88.3601 137.443C89.9386 139.232 91.5724 140.97 93.2613 142.655C96.4355 145.781 100.018 148.469 103.436 151.317C110.685 157.354 117.335 164.434 120.292 173.568C123.939 184.835 122.082 200.836 119.52 212.226C118.792 215.462 118.01 218.891 116.705 221.954C120.522 222.525 127.194 222.555 131.04 222.082L133.359 221.842C129.367 212.175 126.861 195.191 127.466 184.728C127.739 180.026 128.61 175.189 130.432 170.828C133.966 162.371 140.437 155.785 147.466 150.078C150.09 147.946 152.936 145.972 155.356 143.605C157.008 142.008 158.619 140.371 160.19 138.694C163.684 134.932 167.493 130.023 172.357 128.017C174.31 127.212 177.504 126.713 179.487 127.61C180.008 127.847 180.415 128.217 180.614 128.76C180.817 129.309 180.766 129.885 180.647 130.446C180.066 133.179 177.194 139.193 175.859 141.85C174.092 145.365 171.988 148.927 169.585 152.049C168.941 152.886 165.923 156.242 166.017 157.052C166.39 157.125 166.746 156.837 167.039 156.641C177.425 149.673 185.279 133.598 187.585 121.617C189.443 111.967 188.912 103.13 187.667 93.4801C187.226 90.0618 186.199 85.1895 186.499 81.8598C186.651 80.171 187.383 78.781 188.829 77.8398C190.039 77.0519 191.827 76.7656 193.232 77.1065C194.359 77.3797 195.053 78.0077 195.624 78.985C196.794 80.987 197.343 83.409 198.005 85.6186C198.467 87.1426 198.942 88.6628 199.43 90.1791C203.445 102.863 207.059 116.328 206.423 129.735C206.203 134.387 205.329 139.214 204.107 143.708C203.914 144.421 203.711 145.13 203.497 145.837C203.284 146.543 203.06 147.246 202.825 147.947C202.591 148.646 202.346 149.343 202.091 150.036C201.836 150.728 201.571 151.417 201.295 152.102C201.02 152.787 200.734 153.468 200.439 154.145C200.144 154.821 199.839 155.493 199.523 156.161C199.208 156.829 198.883 157.492 198.548 158.15C198.214 158.808 197.869 159.461 197.515 160.109C197.161 160.757 196.798 161.4 196.425 162.037C196.052 162.675 195.67 163.306 195.279 163.933C194.887 164.559 194.486 165.179 194.077 165.793C193.667 166.408 193.248 167.016 192.82 167.618C192.393 168.22 191.956 168.816 191.511 169.405C191.066 169.994 190.612 170.577 190.149 171.153C189.687 171.729 189.216 172.298 188.737 172.86C188.258 173.422 187.77 173.977 187.275 174.525C184.6 177.531 181.625 180.357 178.543 182.944C170.685 189.538 160.392 195.907 160.854 207.521C160.968 210.394 161.589 213.166 162.982 215.696C163.72 215.385 164.455 215.065 165.185 214.736C165.916 214.407 166.643 214.069 167.365 213.722C168.088 213.375 168.806 213.02 169.52 212.656C170.234 212.292 170.943 211.919 171.648 211.538C172.353 211.157 173.053 210.767 173.749 210.369C174.444 209.971 175.135 209.565 175.82 209.15C176.506 208.735 177.186 208.312 177.861 207.881C178.537 207.449 179.207 207.01 179.871 206.562C180.536 206.115 181.195 205.66 181.848 205.196C182.502 204.733 183.15 204.262 183.792 203.783C184.434 203.304 185.07 202.817 185.701 202.322C186.331 201.828 186.955 201.326 187.573 200.816C188.191 200.307 188.803 199.79 189.409 199.266C190.014 198.741 190.614 198.21 191.206 197.671C191.799 197.132 192.385 196.586 192.964 196.033C193.544 195.48 194.116 194.92 194.682 194.353C195.248 193.786 195.807 193.213 196.359 192.633C196.911 192.052 197.455 191.465 197.993 190.872C198.531 190.278 199.061 189.678 199.584 189.072C200.107 188.466 200.623 187.853 201.131 187.234C201.64 186.615 202.14 185.99 202.633 185.359C203.126 184.729 203.612 184.092 204.089 183.449C204.567 182.806 205.036 182.158 205.498 181.504C205.96 180.85 206.414 180.191 206.86 179.526C207.306 178.861 207.743 178.19 208.173 177.515C208.603 176.839 209.024 176.159 209.437 175.473C209.85 174.787 210.255 174.097 210.651 173.401C211.047 172.705 211.435 172.005 211.815 171.3C212.194 170.595 212.564 169.886 212.926 169.172C213.289 168.458 213.642 167.74 213.987 167.018C214.331 166.295 214.667 165.569 214.994 164.838C215.321 164.108 215.639 163.373 215.948 162.635C216.254 161.897 216.551 161.155 216.839 160.41C217.127 159.664 217.406 158.916 217.676 158.164C217.946 157.412 218.206 156.656 218.458 155.898C218.709 155.139 218.951 154.378 219.184 153.614C219.417 152.849 219.64 152.082 219.854 151.313C220.068 150.543 220.273 149.771 220.468 148.996C220.663 148.221 220.849 147.444 221.025 146.665C221.202 145.886 221.369 145.104 221.526 144.321C221.683 143.538 221.83 142.753 221.969 141.966C222.107 141.179 222.235 140.391 222.354 139.601C222.473 138.811 222.582 138.019 222.682 137.227C222.781 136.434 222.871 135.64 222.952 134.846C223.032 134.051 223.102 133.255 223.163 132.459C223.224 131.662 223.275 130.865 223.317 130.067C223.358 129.269 223.39 128.471 223.412 127.673C223.434 126.874 223.446 126.075 223.448 125.276C223.451 124.478 223.443 123.679 223.426 122.88C223.409 122.082 223.383 121.283 223.346 120.485C223.31 119.687 223.264 118.89 223.208 118.093C223.152 117.296 223.086 116.5 223.011 115.705C222.936 114.909 222.851 114.115 222.756 113.322C222.661 112.529 222.557 111.737 222.443 110.946C222.329 110.155 222.205 109.366 222.072 108.578C221.939 107.791 221.796 107.005 221.644 106.22C221.491 105.436 221.329 104.654 221.158 103.874C220.986 103.093 220.805 102.315 220.615 101.539C220.424 100.763 220.225 99.99 220.015 99.219C219.806 98.448 219.587 97.6795 219.359 96.9136C219.131 96.1479 218.894 95.3851 218.647 94.6253C218.401 93.8652 218.145 93.1083 217.88 92.3545C217.615 91.6007 217.34 90.8503 217.057 90.1034C216.774 89.3561 216.481 88.6126 216.18 87.8726C215.875 87.131 215.561 86.3931 215.238 85.659C214.915 84.9251 214.583 84.1953 214.242 83.4694C213.901 82.7436 213.551 82.0221 213.192 81.305C212.833 80.5876 212.466 79.8748 212.09 79.1664C211.713 78.4583 211.328 77.7548 210.935 77.0559C210.541 76.357 210.139 75.6631 209.728 74.9741C209.318 74.2852 208.899 73.6014 208.471 72.9226C208.044 72.2439 207.608 71.5705 207.164 70.9024C206.72 70.2344 206.268 69.5719 205.808 68.915C205.347 68.2581 204.879 67.607 204.403 66.9615C203.926 66.316 203.442 65.6764 202.95 65.0426C202.458 64.409 201.958 63.7815 201.451 63.1601C200.943 62.5389 200.428 61.9239 199.906 61.3151C199.383 60.7063 198.853 60.1039 198.316 59.508C197.778 58.9123 197.233 58.3233 196.682 57.7409C196.13 57.1584 195.571 56.5827 195.005 56.014C194.438 55.4453 193.865 54.8836 193.286 54.3289C192.706 53.7741 192.119 53.2266 191.526 52.6863C190.932 52.146 190.332 51.613 189.726 51.0873C189.12 50.5617 188.507 50.0436 187.887 49.5329C187.268 49.0223 186.643 48.5193 186.011 48.024C185.38 47.5287 184.742 47.0412 184.099 46.5615C183.455 46.0818 182.806 45.6101 182.151 45.1463C181.495 44.6825 180.834 44.2268 180.168 43.7792C179.502 43.3317 178.83 42.8923 178.153 42.4612C177.476 42.03 176.793 41.6073 176.106 41.1928C175.418 40.7784 174.726 40.3725 174.028 39.975C173.331 39.5776 172.628 39.1887 171.921 38.8085C171.214 38.4282 170.502 38.0567 169.786 37.6939C169.07 37.3311 168.349 36.9771 167.624 36.6319C166.899 36.2868 166.17 35.9505 165.437 35.6232C164.703 35.2959 163.966 34.9776 163.225 34.6684C148.929 28.7659 134.849 26.4661 119.462 27.017C113.322 27.4646 107.361 28.1985 101.359 29.6234C100.746 29.7712 100.134 29.9249 99.5235 30.0846C98.9132 30.2442 98.3044 30.4097 97.6973 30.5812C97.0901 30.7526 96.4847 30.9299 95.8812 31.113C95.2774 31.2962 94.6756 31.4852 94.0757 31.6799C93.4756 31.8747 92.8776 32.0753 92.2816 32.2817C91.6854 32.488 91.0913 32.7001 90.4995 32.918C89.9074 33.1359 89.3176 33.3594 88.7301 33.5887C88.1424 33.818 87.557 34.0529 86.9739 34.2935C86.3908 34.5341 85.8102 34.7803 85.2319 35.0322C84.6537 35.284 84.0779 35.5414 83.5046 35.8044C82.9312 36.0674 82.3605 36.3359 81.7925 36.6099C81.2245 36.8839 80.6592 37.1634 80.0965 37.4483C79.5338 37.7333 78.974 38.0237 78.4169 38.3195C77.8599 38.6153 77.3058 38.9164 76.7549 39.2229C76.2036 39.5295 75.6555 39.8413 75.1103 40.1584C74.5654 40.4755 74.0234 40.7979 73.4844 41.1255C72.9455 41.4531 72.41 41.7859 71.8778 42.1239C71.3455 42.4618 70.8164 42.8049 70.2905 43.1532C69.7648 43.5014 69.2427 43.8546 68.724 44.2129C68.2052 44.5712 67.6898 44.9345 67.178 45.3028C66.6662 45.6711 66.158 46.0443 65.6535 46.4225C65.149 46.8006 64.6481 47.1835 64.1509 47.5713C63.6539 47.9592 63.1607 48.3518 62.6713 48.7491C62.1818 49.1465 61.6963 49.5485 61.2146 49.9553C60.733 50.3621 60.2554 50.7734 59.7817 51.1894C59.3081 51.6054 58.8385 52.0259 58.3729 52.451C57.9073 52.8761 57.446 53.3057 56.9889 53.7397C56.5318 54.1737 56.079 54.6121 55.6304 55.0548C55.1817 55.4976 54.7374 55.9446 54.2974 56.3961C53.8575 56.8475 53.4219 57.3031 52.9909 57.7628C52.5598 58.2225 52.1332 58.6864 51.7111 59.1546C51.289 59.6226 50.8715 60.0947 50.4586 60.5709C49.9318 61.178 49.4125 61.7913 48.9007 62.4108C48.3889 63.0305 47.8847 63.6563 47.3882 64.2882C46.8917 64.92 46.403 65.5579 45.9221 66.2016C45.4412 66.8456 44.9682 67.4952 44.5032 68.1504C44.0382 68.8059 43.5813 69.4669 43.1324 70.1335C42.6835 70.7998 42.2429 71.4716 41.8105 72.1489C41.3781 72.8262 40.954 73.5086 40.5383 74.1961C40.1225 74.8836 39.7153 75.576 39.3165 76.2735C38.9177 76.9709 38.5275 77.6732 38.1458 78.3803C37.7642 79.0873 37.3913 79.7988 37.0271 80.5149C36.6629 81.2308 36.3075 81.9512 35.9608 82.6761C35.6143 83.4007 35.2766 84.1295 34.9478 84.8624C34.619 85.5953 34.2993 86.3322 33.9885 87.0731C33.6778 87.8137 33.3761 88.5582 33.0836 89.3064C32.7911 90.0543 32.5077 90.8058 32.2335 91.5608C31.9594 92.3158 31.6945 93.074 31.4389 93.8356C31.1832 94.5969 30.937 95.3613 30.7001 96.129C30.4631 96.8963 30.2356 97.6665 30.0175 98.4395C29.7995 99.2124 29.5909 99.9879 29.3918 100.766C29.1926 101.544 29.0031 102.324 28.8231 103.107C28.643 103.89 28.4726 104.675 28.3117 105.461C28.1509 106.248 27.9997 107.037 27.8582 107.828C27.7166 108.618 27.5848 109.41 27.4626 110.204C27.3404 110.998 27.228 111.793 27.1253 112.589C27.0225 113.386 26.9296 114.183 26.8463 114.982C26.7631 115.781 26.6897 116.58 26.626 117.381C26.5624 118.181 26.5085 118.983 26.4645 119.784C26.4204 120.586 26.3861 121.389 26.3617 122.191C26.3373 122.994 26.3226 123.797 26.3178 124.6C26.313 125.403 26.318 126.206 26.3329 127.009C26.3477 127.812 26.3724 128.614 26.4068 129.417C26.4413 130.219 26.4855 131.021 26.5396 131.822C26.5996 132.625 26.6693 133.428 26.7489 134.23C26.8285 135.031 26.9178 135.832 27.017 136.632C27.1161 137.431 27.225 138.229 27.3438 139.026C27.4624 139.823 27.5909 140.619 27.729 141.412C27.8672 142.206 28.015 142.998 28.1725 143.788C28.3301 144.578 28.4972 145.367 28.674 146.153C28.8509 146.939 29.0373 147.723 29.2332 148.504C29.4292 149.286 29.6347 150.065 29.8498 150.841C30.0649 151.618 30.2894 152.392 30.5234 153.163C30.7573 153.934 31.0007 154.702 31.2535 155.467C31.5063 156.232 31.7684 156.994 32.0398 157.753C32.3112 158.512 32.5919 159.267 32.8818 160.019C33.1717 160.771 33.4707 161.519 33.7789 162.264C34.0871 163.009 34.4044 163.749 34.7308 164.486C35.0571 165.223 35.3924 165.956 35.7367 166.685C36.0809 167.414 36.434 168.138 36.796 168.858C37.158 169.578 37.5288 170.294 37.9083 171.005C38.2878 171.716 38.6759 172.422 39.0727 173.124C39.4695 173.826 39.8748 174.522 40.2886 175.214C40.7024 175.906 41.1246 176.593 41.5553 177.274C41.9859 177.955 42.4248 178.631 42.8719 179.302C43.3191 179.973 43.7744 180.638 44.2379 181.298C44.7013 181.958 45.1728 182.611 45.6522 183.26C46.1316 183.908 46.6189 184.55 47.1141 185.186C47.6092 185.823 48.1121 186.453 48.6227 187.077C49.1333 187.701 49.6514 188.319 50.1771 188.93C50.7028 189.542 51.2359 190.146 51.7764 190.745C52.3168 191.343 52.8646 191.935 53.4195 192.52C53.9745 193.105 54.5366 193.684 55.1057 194.255C55.6749 194.826 56.2509 195.391 56.8338 195.948C57.4166 196.506 58.0063 197.056 58.6028 197.599C59.199 198.142 59.8019 198.677 60.4115 199.205C61.7988 200.414 63.2191 201.582 64.6723 202.71C66.1255 203.838 67.6096 204.925 69.1243 205.97C70.6389 207.014 72.1818 208.016 73.7533 208.973C75.3245 209.931 76.9215 210.844 78.5443 211.712C81.2839 213.147 84.1001 214.335 86.8758 215.677Z" fill="#BCD3C4"/>
<path d="M124.182 39.0888C125.05 39.0517 125.636 39.1202 126.307 39.7188C128.881 42.0153 128.59 48.7014 127.933 51.7337C127.615 53.2032 126.902 54.6171 126.691 56.0934C126.42 57.9854 126.541 60.8153 126.672 62.747L126.815 62.8315L126.752 63.0049C126.917 62.9477 127.301 62.0043 127.397 61.7981C128.253 59.9713 129.093 58.2389 130.242 56.5702C131.756 54.3698 134.12 51.9825 136.891 51.5296C137.517 51.4272 138.196 51.4619 138.716 51.8649C139.216 52.2521 139.416 52.8711 139.459 53.4806C139.783 58.0641 134.193 63.1182 130.69 65.4028C129.737 66.025 127.826 66.7488 127.164 67.6004C126.503 68.4502 126.612 77.4358 126.732 79.0207C127.715 77.7961 128.488 76.3533 129.386 75.0598C131.811 71.569 135.387 67.9461 139.439 66.4322C140.673 65.9711 142.276 65.5802 143.52 66.1875C144.099 66.4698 144.52 66.9612 144.725 67.5695C145.093 68.6601 144.757 69.8472 144.259 70.8391C142.113 75.1195 136.858 78.9067 132.592 80.892C130.847 81.7039 129.03 82.2911 127.208 82.899C127.182 85.3964 127.301 87.8982 127.272 90.3999C127.246 92.6488 127.07 94.9025 127.126 97.1508C128.176 96.1534 128.979 94.6111 129.843 93.4316C132.471 89.8418 135.715 86.872 139.659 84.7735C142.226 83.4079 145.832 82.0714 148.759 83.0528C149.436 83.28 150.153 83.7915 150.464 84.449C150.815 85.1921 150.714 86.0717 150.441 86.8221C149.904 88.2996 148.783 89.5781 147.712 90.6957C143.972 94.5991 139.082 97.5737 134.075 99.5669C132.932 100.021 131.771 100.419 130.59 100.763C129.687 101.034 128.712 101.247 127.858 101.648C127.825 101.664 127.794 101.68 127.761 101.696C127.467 103.36 127.601 105.142 127.553 106.831C127.449 110.473 127.301 114.064 127.413 117.71C128.065 116.607 128.621 115.473 129.341 114.406C132.976 109.019 138.277 104.337 144.571 102.399C146.23 101.888 149.465 101.118 151.057 102.027C151.593 102.333 151.912 102.85 152.047 103.442C152.265 104.392 152.105 105.39 151.719 106.274C150.265 109.608 144.242 114.663 141.14 116.645C139.342 117.795 137.271 118.783 135.29 119.572C133.844 120.149 127.819 121.983 127.773 122.057C127.162 123.028 128.438 139.014 128.008 141.992C127.963 142.296 127.886 142.593 127.779 142.881C127.671 143.169 127.536 143.444 127.371 143.704C126.797 144.63 126.042 145.011 125.019 145.253C124.063 145.165 123.267 144.73 122.666 143.982C122.175 143.371 121.78 142.536 121.659 141.755C121.362 139.841 121.828 135.253 121.894 133.034C122.003 129.32 121.828 125.564 122.162 121.863C115.625 120.532 110.049 118.117 104.772 114.019C103.297 112.874 101.844 111.671 100.567 110.307C99.0787 108.717 97.0046 106.587 97.1283 104.26C97.1688 103.501 97.4629 102.607 98.0519 102.092C98.7393 101.492 99.7548 101.457 100.619 101.538C103.257 101.785 106.062 102.584 108.433 103.739C111.819 105.388 115.784 108.582 118.186 111.482C119.02 112.488 119.825 113.548 120.565 114.625C121.108 115.414 121.589 116.262 122.207 116.995C122.233 117.025 122.26 117.055 122.286 117.085C122.463 112.05 122.179 106.966 121.999 101.933C120.457 100.967 118.382 100.633 116.678 99.9785C110.808 97.7219 105.104 94.4454 100.984 89.6197C100 88.4671 98.7265 86.7405 98.9104 85.1429C98.9922 84.4358 99.3917 83.8869 99.9639 83.4811C101.321 82.5187 103.495 82.6834 105.057 82.9934C110.046 83.9834 115.052 87.6494 118.304 91.4694C119.632 93.0291 120.745 94.7652 121.88 96.4659L121.834 96.5789L121.947 96.5552L122.14 96.8364C122.498 95.9225 122.293 84.709 122.267 82.8531C116.295 80.7951 111.406 78.5224 107.161 73.6909C105.958 72.322 104.262 70.1561 104.439 68.2171C104.502 67.5192 104.842 66.9029 105.406 66.4836C106.24 65.8625 107.278 65.8057 108.271 65.966C113.003 66.7302 117.245 71.2583 119.962 74.9294C120.8 76.0611 121.519 77.2701 122.339 78.415L122.509 78.4077C122.559 78.2984 122.604 78.2052 122.621 78.0842C122.776 76.931 122.734 68.1949 122.387 67.6598C121.859 66.845 118.859 65.3358 117.891 64.6474C115.551 62.9823 113.298 61.122 111.638 58.7554C110.558 57.2157 109.453 55.0487 109.838 53.1071C109.942 52.582 110.191 52.0704 110.654 51.7733C111.332 51.3377 112.274 51.476 113.01 51.6646C116.999 52.686 119.579 57.0299 121.281 60.4456C121.701 61.2896 122.008 62.3052 122.506 63.0912C122.625 63.2796 122.635 63.3317 122.861 63.3717C123.047 62.9994 122.737 61.7803 122.713 61.283C122.628 59.4712 122.879 57.5767 122.627 55.7842C122.455 54.5609 121.902 53.4715 121.595 52.2882C120.758 49.0613 120.724 45.122 121.852 41.9583C122.282 40.7534 122.993 39.6543 124.182 39.0888Z" fill="#BCD3C4"/>
<path d="M68.6025 83.5063C68.9353 83.4942 69.286 83.5343 69.6111 83.605C71.4278 83.9987 73.0742 85.7039 74.0269 87.2214C74.1539 87.4232 74.2731 87.6296 74.3845 87.8406C74.4959 88.0514 74.5992 88.2662 74.6943 88.485C74.7894 88.7035 74.8762 88.9255 74.9545 89.1509C75.0328 89.376 75.1026 89.6039 75.1639 89.8346C75.225 90.065 75.2773 90.2974 75.3208 90.5318C75.3641 90.7661 75.3987 91.0018 75.4245 91.2388C75.45 91.4761 75.4667 91.7138 75.4745 91.952C75.4822 92.1903 75.4809 92.4285 75.4704 92.6667C75.3497 96.0547 73.8492 100.232 72.9775 103.558C71.173 110.207 69.4588 116.878 67.8348 123.573C67.6075 124.796 67.1375 125.954 67.0864 127.208C66.3577 125.452 65.9301 123.646 65.5028 121.8C63.2741 112.176 64.075 102.905 65.4269 93.2331C65.7827 90.6884 65.8885 87.8264 66.7883 85.4117C67.1827 84.3528 67.5794 83.9707 68.6025 83.5063Z" fill="#BCD3C4"/>
<path d="M180.233 83.5154C180.403 83.5096 180.568 83.5107 180.738 83.5249C181.372 83.5777 181.909 83.7849 182.318 84.2887C183.47 85.7086 183.655 89.3523 183.91 91.213C185.014 99.2799 186.047 107.405 185.229 115.559C184.989 117.767 184.628 119.956 184.146 122.125C183.79 123.675 183.236 125.291 183.09 126.873L183.078 127.029C182.744 126.003 182.3 125.004 182.059 123.952C179.844 114.752 177.068 105.672 174.762 96.4937C173.964 93.3169 173.763 90.1745 175.544 87.2647C176.585 85.5636 178.253 83.986 180.233 83.5154Z" fill="#BCD3C4"/>
<path d="M78.7527 100.286C78.9647 100.27 79.1763 100.266 79.3887 100.264C80.7092 100.259 81.9082 100.577 82.8511 101.557C85.7136 104.532 83.71 111.111 82.8445 114.641C82.0228 117.994 80.6322 122.284 80.5034 125.681C79.7404 125.177 78.9161 124.892 78.0543 124.605C75.9711 124.05 73.645 123.824 71.5096 124.176C71.9435 122.494 72.2299 120.761 72.6233 119.067C73.5012 115.313 74.4253 111.571 75.3957 107.839C75.9102 105.839 76.3065 103.61 77.1457 101.719C77.4854 100.955 77.9824 100.587 78.7527 100.286Z" fill="#BCD3C4"/>
<path d="M169.265 100.303C170.057 100.243 171.063 100.157 171.741 100.639C172.288 101.028 172.609 101.93 172.826 102.546C173.674 104.954 174.177 107.611 174.811 110.086C175.99 114.69 177.197 119.26 178.159 123.916C176.321 123.829 174.677 123.974 172.876 124.314C171.639 124.683 170.416 125.106 169.326 125.81C168.973 123.557 168.502 121.457 167.934 119.253C167.488 117.479 167.053 115.701 166.63 113.921C165.855 110.681 164.324 105.461 166.197 102.434C166.91 101.282 167.969 100.615 169.265 100.303Z" fill="#BCD3C4"/>
</g>
<path d="M122.848 78.476L102.446 138.672H143.048L122.848 78.476ZM61.4397 192V183.718L78.4077 181.092L121.434 55.852H134.16L177.186 181.9L192.336 183.718V192H137.392V183.718L157.188 181.294L146.078 148.166H99.2137L87.9017 181.092L107.698 183.718V192H61.4397Z" fill="#6B967C"/>
<path d="M119.848 78.476L99.4457 138.672H140.048L119.848 78.476ZM58.4397 192V183.718L75.4077 181.092L118.434 55.852H131.16L174.186 181.9L189.336 183.718V192H134.392V183.718L154.188 181.294L143.078 148.166H96.2137L84.9017 181.092L104.698 183.718V192H58.4397Z" fill="#2E4137"/>
<defs>
<clipPath id="clip0_3926_3154">
<rect width="212" height="212" fill="white" transform="translate(19 19)"/>
</clipPath>
</defs>
</svg>
